HIERARCHY
ROOT __0
{
	OFFSET 0.0 0.0 0.0
	CHANNELS 0
	JOINT Root
	{
		OFFSET 0.000000 0.000000 0.000000
		CHANNELS 6 Xposition Yposition Zposition Xrotation Yrotation Zrotation
		JOINT LegFront0.R
		{
			OFFSET -0.418178 -0.418153 0.176516
			CHANNELS 6 Xposition Yposition Zposition Xrotation Yrotation Zrotation
			JOINT LegFront1.R
			{
				OFFSET -0.323942 0.000000 0.000000
				CHANNELS 3 Xrotation Yrotation Zrotation
				JOINT LegFront2.R
				{
					OFFSET -0.647048 0.000000 -0.000230
					CHANNELS 3 Xrotation Yrotation Zrotation
					End Site
					{
						OFFSET -0.000003 0.000000 -0.916380
					}
				}
			}
		}
		JOINT LegFront0.L
		{
			OFFSET 0.418178 -0.418153 0.176516
			CHANNELS 6 Xposition Yposition Zposition Xrotation Yrotation Zrotation
			JOINT LegFront1.L
			{
				OFFSET 0.323942 0.000000 0.000000
				CHANNELS 3 Xrotation Yrotation Zrotation
				JOINT LegFront2.L
				{
					OFFSET 0.647048 0.000000 -0.000230
					CHANNELS 3 Xrotation Yrotation Zrotation
					End Site
					{
						OFFSET 0.000003 0.000000 -0.916380
					}
				}
			}
		}
		JOINT LegBack0.R
		{
			OFFSET -0.418178 0.418206 0.176516
			CHANNELS 6 Xposition Yposition Zposition Xrotation Yrotation Zrotation
			JOINT LegBack1.R
			{
				OFFSET -0.323942 0.000000 0.000000
				CHANNELS 3 Xrotation Yrotation Zrotation
				JOINT LegBack2.R
				{
					OFFSET -0.647048 0.000000 -0.000230
					CHANNELS 3 Xrotation Yrotation Zrotation
					End Site
					{
						OFFSET -0.000003 0.000000 -0.916380
					}
				}
			}
		}
		JOINT LegBack0.L
		{
			OFFSET 0.418178 0.418206 0.176516
			CHANNELS 6 Xposition Yposition Zposition Xrotation Yrotation Zrotation
			JOINT LegBack1.L
			{
				OFFSET 0.323942 0.000000 0.000000
				CHANNELS 3 Xrotation Yrotation Zrotation
				JOINT LegBack2.L
				{
					OFFSET 0.647048 0.000000 -0.000230
					CHANNELS 3 Xrotation Yrotation Zrotation
					End Site
					{
						OFFSET 0.000003 0.000000 -0.916380
					}
				}
			}
		}
	}
	JOINT LegFrontIK.L
	{
		OFFSET 1.389170 -0.418153 -0.740094
		CHANNELS 6 Xposition Yposition Zposition Xrotation Yrotation Zrotation
		End Site
		{
			OFFSET 0.000000 0.000000 -0.259647
		}
	}
	JOINT LegFrontIK.R
	{
		OFFSET -1.389170 -0.418153 -0.740094
		CHANNELS 6 Xposition Yposition Zposition Xrotation Yrotation Zrotation
		End Site
		{
			OFFSET 0.000000 0.000000 -0.259647
		}
	}
	JOINT LegBackIK.L
	{
		OFFSET 1.389170 0.418206 -0.740094
		CHANNELS 6 Xposition Yposition Zposition Xrotation Yrotation Zrotation
		End Site
		{
			OFFSET 0.000000 0.000000 -0.259647
		}
	}
	JOINT LegBackIK.R
	{
		OFFSET -1.389170 0.418206 -0.740094
		CHANNELS 6 Xposition Yposition Zposition Xrotation Yrotation Zrotation
		End Site
		{
			OFFSET 0.000000 0.000000 -0.259647
		}
	}
}
MOTION
Frames: 8
Frame Time: 0.100000
0.000000 0.000000 -0.593188 -0.000000 0.000000 -0.000000 -0.418178 -0.418153 0.176516 0.000001 -0.000001 0.903122 0.060526 75.396013 -0.078303 0.000337 -65.000008 0.000207 0.418178 -0.418153 0.176516 0.000001 0.000001 -0.909940 0.060601 -75.409803 0.078380 0.000337 65.000001 -0.000207 -0.418178 0.418206 0.176516 -0.000001 0.000000 -0.890934 0.060526 75.395938 -0.078303 0.000337 -65.000008 0.000207 0.418178 0.418206 0.176516 -0.000001 -0.000000 0.890934 0.060526 -75.395938 0.078303 0.000337 65.000008 -0.000207 1.056232 -0.428170 -0.679737 -0.000000 0.000000 -0.000000 -1.056232 -0.428170 -0.679737 -0.000000 0.000000 -0.000000 1.056232 0.428170 -0.679737 -0.000000 0.000000 -0.000000 -1.056232 0.428170 -0.679737 -0.000000 0.000000 -0.000000 
0.000000 0.000000 -0.593188 -0.000000 0.000000 -0.000000 -0.418178 -0.418153 0.176516 0.000001 -0.000001 0.903122 0.060526 75.396013 -0.078303 0.000337 -65.000008 0.000207 0.418178 -0.418153 0.176516 0.000001 0.000001 -0.909940 0.060601 -75.409803 0.078380 0.000337 65.000001 -0.000207 -0.418178 0.418206 0.176516 -0.000001 0.000000 -0.890934 0.060526 75.395938 -0.078303 0.000337 -65.000008 0.000207 0.418178 0.418206 0.176516 -0.000001 -0.000000 0.890934 0.060526 -75.395938 0.078303 0.000337 65.000008 -0.000207 1.056232 -0.428170 -0.679737 -0.000000 0.000000 -0.000000 -1.056232 -0.428170 -0.679737 -0.000000 0.000000 -0.000000 1.056232 0.428170 -0.679737 -0.000000 0.000000 -0.000000 -1.056232 0.428170 -0.679737 -0.000000 0.000000 -0.000000 
0.000000 0.000000 -0.593188 -0.000000 0.000000 -0.000000 -0.418178 -0.418153 0.176516 0.000001 -0.000001 0.903122 0.060526 75.396013 -0.078303 0.000337 -65.000008 0.000207 0.418178 -0.418153 0.176516 0.000001 0.000001 -0.909940 0.060601 -75.409803 0.078380 0.000337 65.000001 -0.000207 -0.418178 0.418206 0.176516 -0.000001 0.000000 -0.890934 0.060526 75.395938 -0.078303 0.000337 -65.000008 0.000207 0.418178 0.418206 0.176516 -0.000001 -0.000000 0.890934 0.060526 -75.395938 0.078303 0.000337 65.000008 -0.000207 1.056232 -0.428170 -0.679737 -0.000000 0.000000 -0.000000 -1.056232 -0.428170 -0.679737 -0.000000 0.000000 -0.000000 1.056232 0.428170 -0.679737 -0.000000 0.000000 -0.000000 -1.056232 0.428170 -0.679737 -0.000000 0.000000 -0.000000 
0.000000 0.000000 -0.593188 -0.000000 0.000000 -0.000000 -0.418178 -0.418153 0.176516 0.000001 -0.000001 0.903122 0.060526 75.396013 -0.078303 0.000337 -65.000008 0.000207 0.418178 -0.418153 0.176516 0.000001 0.000001 -0.909940 0.060601 -75.409803 0.078380 0.000337 65.000001 -0.000207 -0.418178 0.418206 0.176516 -0.000001 0.000000 -0.890934 0.060526 75.395938 -0.078303 0.000337 -65.000008 0.000207 0.418178 0.418206 0.176516 -0.000001 -0.000000 0.890934 0.060526 -75.395938 0.078303 0.000337 65.000008 -0.000207 1.056232 -0.428170 -0.679737 -0.000000 0.000000 -0.000000 -1.056232 -0.428170 -0.679737 -0.000000 0.000000 -0.000000 1.056232 0.428170 -0.679737 -0.000000 0.000000 -0.000000 -1.056232 0.428170 -0.679737 -0.000000 0.000000 -0.000000 
0.000000 0.000000 -0.593188 -0.000000 0.000000 -0.000000 -0.418178 -0.418153 0.176516 0.000001 -0.000001 0.903122 0.060526 75.396013 -0.078303 0.000337 -65.000008 0.000207 0.418178 -0.418153 0.176516 0.000000 0.000000 -0.630118 0.061810 -75.629045 0.079629 0.000165 46.856737 -0.000068 -0.418178 0.418206 0.176516 -0.000001 0.000000 -0.890934 0.060526 75.395938 -0.078303 0.000337 -65.000008 0.000207 0.418178 0.418206 0.176516 -0.000001 -0.000000 0.890934 0.060526 -75.395938 0.078303 0.000337 65.000008 -0.000207 1.344047 -0.428170 -0.593188 -0.000000 0.000000 -0.000000 -1.056232 -0.428170 -0.679737 -0.000000 0.000000 -0.000000 1.056232 0.428170 -0.679737 -0.000000 0.000000 -0.000000 -1.056232 0.428170 -0.679737 -0.000000 0.000000 -0.000000 
0.000000 0.000000 -0.593188 -0.000000 0.000000 -0.000000 -0.418178 -0.418153 0.176516 0.000001 -0.000001 0.903122 0.060526 75.396013 -0.078303 0.000337 -65.000008 0.000207 0.418178 -0.418153 0.176516 0.000000 0.000000 -0.630118 0.061810 -75.629045 0.079629 0.000165 46.856737 -0.000068 -0.418178 0.418206 0.176516 -0.000001 0.000000 -0.890934 0.060526 75.395938 -0.078303 0.000337 -65.000008 0.000207 0.418178 0.418206 0.176516 -0.000001 -0.000000 0.890934 0.060526 -75.395938 0.078303 0.000337 65.000008 -0.000207 1.344047 -0.428170 -0.593188 -0.000000 0.000000 -0.000000 -1.056232 -0.428170 -0.679737 -0.000000 0.000000 -0.000000 1.056232 0.428170 -0.679737 -0.000000 0.000000 -0.000000 -1.056232 0.428170 -0.679737 -0.000000 0.000000 -0.000000 
0.000000 0.000000 -0.593188 -0.000000 0.000000 -0.000000 -0.418178 -0.418153 0.176516 0.000001 -0.000001 0.903122 0.060526 75.396013 -0.078303 0.000337 -65.000008 0.000207 0.418178 -0.418153 0.176516 0.000000 0.000000 -0.630118 0.061810 -75.629045 0.079629 0.000165 46.856737 -0.000068 -0.418178 0.418206 0.176516 -0.000001 0.000000 -0.890934 0.060526 75.395938 -0.078303 0.000337 -65.000008 0.000207 0.418178 0.418206 0.176516 -0.000001 -0.000000 0.890934 0.060526 -75.395938 0.078303 0.000337 65.000008 -0.000207 1.344047 -0.428170 -0.593188 -0.000000 0.000000 -0.000000 -1.056232 -0.428170 -0.679737 -0.000000 0.000000 -0.000000 1.056232 0.428170 -0.679737 -0.000000 0.000000 -0.000000 -1.056232 0.428170 -0.679737 -0.000000 0.000000 -0.000000 
0.000000 0.000000 -0.593188 -0.000000 0.000000 -0.000000 -0.418178 -0.418153 0.176516 0.000000 -0.000000 0.629887 0.061771 75.622031 -0.079589 0.000165 -46.849582 0.000068 0.418178 -0.418153 0.176516 0.000019 0.000011 -27.014887 -0.068937 -114.856065 -0.044053 0.000133 40.326058 -0.000043 -0.418178 0.418206 0.176516 -0.000001 0.000000 -0.890934 0.060526 75.395938 -0.078303 0.000337 -65.000008 0.000207 0.418178 0.418206 0.176516 -0.000001 -0.000000 0.890934 0.060526 -75.395938 0.078303 0.000337 65.000008 -0.000207 1.251642 -0.842678 -0.073893 -0.000000 0.000000 -0.000000 -1.344047 -0.428170 -0.593188 -0.000000 0.000000 -0.000000 1.056232 0.428170 -0.679737 -0.000000 0.000000 -0.000000 -1.056232 0.428170 -0.679737 -0.000000 0.000000 -0.000000 
